
<svg xmlns="http://www.w3.org/2000/svg" >

     
<g id="logo--theoRetro">
    <path fill="#CCE2D7" d="M4.4,206.5c0.2,0.4,0.6,1.101,1.4,1.801c0,0,0,0-0.1-0.1C5.6,208.1,5.6,208.1,5.5,207.9
        c-0.1-0.1-0.2-0.199-0.3-0.4c-0.1-0.1-0.2-0.299-0.3-0.5c-0.2-0.299-0.4-0.6-0.5-0.899c-0.1-0.101-0.1-0.2-0.2-0.3
        c0-0.1-0.1-0.1-0.1-0.1C4.1,205.9,4.2,206.1,4.4,206.5z"/>
    <path fill="#CCE2D7" d="M84.3,199.701c-0.1,0.199-0.2,0.399-0.2,0.5C84.3,199.9,84.3,199.701,84.3,199.701z"/>
    <path fill="#CCE2D7" d="M51.7,131C51.7,131,51.6,131,51.7,131c-0.2,0.2-0.4,0.4-0.5,0.6L51.7,131z"/>
    <polygon fill="#CCE2D7" points="214.4,12.9 214.4,12.9 215.201,12.4  "/>
    <path fill="#CCE2D7" d="M116.3,206.3c0,0,0,0.1,0,0.199c0,0.101,0,0.301,0,0.4c0,0.2,0,0.301,0,0.4s0,0.199,0,0.199
        S116.4,207.201,116.3,206.3z"/>
    <path fill="#CCE2D7" d="M227.1,300.1c0.101,0,0.2,0,0.2,0C227.1,300.1,227.1,300.1,227.1,300.1z"/>
    <path fill="#CCE2D7" d="M89.9,236.9C89.9,236.8,89.9,236.8,89.9,236.9c0.1-0.1,0.2-0.199,0.2-0.199L89.9,236.9z"/>
    <path fill="#CCE2D7" d="M292.3,301.9c0-0.1-0.301-0.5-0.4-0.5h-0.1h-0.1l0,0l0,0l0,0l0,0l-0.101-0.1c-0.101,0-0.2-0.1-0.3-0.1
        c-0.7-0.4-1.4-0.701-2.1-1c-0.701-0.201-1.4-0.5-2.101-0.601c-0.2,0-0.3-0.101-0.5-0.101l-0.3-0.1h-0.2c-0.3,0-0.7-0.1-1-0.1
        s-0.601-0.1-1-0.1c-0.3,0-0.601,0-1,0c-0.601,0-1.3,0-1.899,0.1c-0.301,0-0.601,0.1-0.9,0.1c-0.301,0-0.6,0.1-0.9,0.1
        c-0.199-0.199-0.699-0.299-1.3-0.299c-0.3,0-0.601,0-1,0s-0.7,0.1-1.101,0.1c-1.5,0.199-3.1,0.5-3.899,0.5l0.101-0.1
        c-1,0.299-2.101,0.5-3.101,0.6c-0.5,0.1-1,0.1-1.601,0.199c-0.1,0-0.299,0-0.399,0h-0.399H266c-1.899,0-3.799-0.199-5.799-0.199
        c0.1,0,0.199-0.2,0.899-0.2c-1.3-0.101-2.899-0.2-4.2-0.399c-1.4-0.201-2.4-0.4-2.5-0.601c-0.4,0-0.9-0.101-1.4-0.101
        c-0.199,0-0.5,0-0.699-0.1c-0.2,0-0.5,0-0.7-0.1c-0.5,0-1-0.1-1.5-0.1s-1-0.101-1.5-0.101c-1-0.101-2-0.101-3-0.101
        c-0.5,0-1,0-1.5,0s-1,0-1.5,0c-1,0-2,0.101-2.899,0.201C238.8,298.8,237.9,298.9,237,299c-0.799,0.101-1.6,0.201-2.299,0.4
        c-0.701,0.1-1.4,0.3-1.9,0.4l0.3-0.101c-0.3,0.101-0.601,0.2-0.8,0.2c-0.2,0.1-0.5,0.1-0.7,0.1S231.201,300.1,231,300.1
        c-0.199,0-0.399,0-0.6,0c-0.4,0-0.8,0-1.3,0s-1,0-1.7,0C227.3,300,227.1,300,227.1,300c-1.3,0.101-3.3-0.1-5.101-0.5
        c-1-0.199-1.899-0.399-2.699-0.5c-0.801-0.199-1.6-0.299-2.2-0.299L217,298.4c0,0-0.1,0-0.199,0s-0.4,0-0.6-0.1
        c-0.5-0.1-1.201-0.2-2-0.2c-0.4,0-0.701-0.101-1.101-0.101c-0.3,0-0.7,0-0.899,0c-0.5,0-0.9,0-0.9,0s0.5,0,1.1,0.101
        c0.301,0,0.5,0,0.7,0.101c0.2,0,0.3,0,0.3,0c-0.199,0.199-0.6,0.199-1.1,0.199c-0.301,0-0.5,0-0.9-0.1c-0.199,0-0.3,0-0.5-0.1
        c-0.199,0-0.4,0-0.5-0.101c-0.4,0-0.8-0.101-1.199-0.101c-0.4,0-0.9-0.1-1.4,0c-0.9,0-2,0.101-3,0.4c-0.5,0.1-1,0.1-1.4,0.2
        c-0.5,0.101-0.9,0.3-1.4,0.399c-0.5,0.201-0.899,0.301-1.399,0.5c-0.5,0.201-0.899,0.4-1.3,0.601c-1.801,0.8-3.6,1.601-5.5,2
        c-1.7,0.8,1.4-1-1.2,0c-0.2-0.399,1.2-0.601,0.399-0.7c-2.6,0.9-4.399,0.8-7.5,2l-0.199-0.3c-2,0.8-4,1.2-5.801,1.5
        c-1.799,0.3-3.399,0.5-4.799,0.899c-0.5,0.101-1,0.201-1.4,0.201s-0.7,0-1,0c-0.301,0-0.5,0-0.7-0.101
        c-0.2,0-0.399-0.101-0.601-0.101c-0.399-0.1-0.799-0.1-1.299-0.1c-0.301,0-0.601,0-1,0c-0.4,0-0.9,0.1-1.4,0.1c0,0-0.1,0-0.301-0.1
        c-0.199,0-0.399-0.1-0.6-0.2c-0.4-0.1-0.8-0.3-0.8-0.3c-0.5-0.1-0.8-0.1-1-0.1s-0.399,0.1-0.601,0.1c-0.199,0-0.399,0-0.699,0
        c-0.1,0-0.301,0-0.5-0.1c-0.2,0-0.4-0.101-0.6-0.2c0.1-0.101-0.5-0.3-1-0.5s-0.801-0.3-0.201-0.3L160.6,303.7l-0.399-0.2
        c-0.301-0.1-0.5-0.199-0.801-0.3c-0.6-0.2-1.199-0.399-1.8-0.6c-1.2-0.4-2.5-0.7-3.8-1.101c-2.6-0.8-5.4-1.699-8.6-3.1
        c-0.4,0-0.9-0.1-1.4-0.2c-0.5-0.1-1.1-0.3-1.7-0.399c-1.2-0.301-2.3-0.5-2.8-0.5c0-0.101-0.5-0.2-1-0.4c-0.6-0.2-1.3-0.3-1.9-0.5
        s-1.1-0.3-1.1-0.3s0-0.101,0.2-0.101s0.5,0,1,0c0.3,0,0.9,0.2,0.9,0.2l0.5-0.2c-0.9-0.3-1.8-0.6-2.8-0.699
        c-0.5-0.101-0.9-0.101-1.3-0.2c-0.4,0-0.9-0.101-1.3-0.101s-0.9-0.1-1.3-0.1c-0.4,0-0.9,0-1.3,0c-0.9-0.1-1.8-0.1-2.8-0.2
        c1.1,0.2,2.6,0.3,1.6,0.399c0,0-0.9-0.1-1.8-0.199c-0.4,0-0.9-0.1-1.2-0.1c-0.3,0-0.6,0-0.6,0l0.8-0.201c0,0-1.3-0.1-2.6-0.199
        c-1.3-0.1-2.6-0.2-2.6-0.2l0.7,0.3c-1.3-0.1-2.2-0.3-3.1-0.4c-0.9-0.1-1.9-0.1-3.3,0.101c-1.3,0.3,2.4,0.399-0.3,0.5
        c-1.7-0.101-3.9-0.101-6.2-0.101s-4.7,0.101-6.9,0.301c0.4,0.3-0.7,0.4-1.9,0.6l-0.2-0.3c-2.3,0.5-2.7,0.399-3.2,0.2
        c-0.4-0.1-0.9-0.301-3.1,0.199l-0.7,0.5c-2,0.601-2.6,0.5-3.2,0.5c-0.6,0-1.3,0-3.5,0.801c1.8-0.301,1,0.5-1.3,0.8L85,297.8
        c-0.6,0.1-1.1,0.299-1.1,0.299c-0.1,0.101-0.3,0.101-0.4,0.101c0.2-0.101,0.2-0.2,0.1-0.3s-0.2-0.1-0.4,0c0,0,0.1-0.1,0.3-0.2
        c0.1-0.101,0.2-0.2,0.2-0.2s0,0-0.1,0.1c-0.1,0.101-0.2,0.201-0.4,0.201c0,0-0.1,0-0.1,0.1H83c-0.1,0-0.1,0-0.1-0.1
        c-0.1,0-0.1-0.101-0.1-0.101c0.1-0.3,0.1-0.5,0.1-0.7v-0.1l0,0v-0.1c0-0.201,0-0.4,0-0.601c0-0.399,0-0.8,0-1.2
        c-0.1-1.6-0.2-3-0.1-3.6c0,0,0-0.4-0.1-0.9c-0.1-0.6-0.2-1.3-0.3-2.1c-0.2-1.5-0.6-3.1-0.9-3.801c0.4,0.601,0-2.1,0.5-1.299
        c-0.3-0.701-0.7-2.101-0.9-3.5c-0.1-0.701-0.2-1.4-0.2-2c0-0.101,0-0.301,0-0.4s0-0.1,0-0.2c0-0.3,0.1-0.601,0.2-0.8v0.3
        c0.2-1.7,0.3-3.2,0.2-4.7c0-1.5-0.2-3-0.4-4.4c-0.2-1.399-0.5-2.899-1-4.399c-0.2-0.7-0.5-1.5-0.8-2.3c-0.3-0.801-0.7-1.6-1.2-2.4
        c-0.1,0.2-0.6-0.5-1.2-1.1c-0.3-0.301-0.6-0.5-0.8-0.7c-0.2-0.101-0.3-0.101-0.2,0.101c-0.1-0.101-0.2-0.201-0.3-0.201l-0.1-0.1
        h-0.1c-0.1,0-0.1,0-0.1-0.1H75c-0.1-0.1-0.2-0.1-0.4-0.2c-0.2-0.101-0.5-0.2-0.6-0.3l-0.1-0.1l0,0l0,0L74,255.7
        c0.1-0.101,0.2-0.101,0.3-0.2c0.2-0.1,0.4-0.199,0.6-0.3c0.2-0.101,0.3-0.2,0.4-0.3c0.1-0.1,0.2-0.1,0.3-0.2s0.2-0.2,0.3-0.2
        c0.2-0.199,0.3-0.3,0.5-0.4c0.6-0.6,1-1.199,1.3-1.799c2.1-1.701,2.7-1.701,3.9-2.5l-0.5,0.5c3.9-3.201,5.1-4.101,8.1-6.4
        c1.4-1.301,1.2-2,4-4c-0.7,0.9,0.4,0,1.3-0.801c-0.6,0.601-0.7,0.801,0.7-0.1c0.1-0.199,0.4-0.5,0.6-0.699h0.1
        c1.6-1.5,1.2-1.301,0.4-0.701c0-0.1-0.1,0-0.4,0.101c0.5-0.3,1-0.7,1.5-1.101c0.3-0.199,0.5-0.399,0.8-0.699
        c0.3-0.2,0.5-0.5,0.8-0.7c1-0.899,1.8-1.601,2-1.5c2.3-2.3,4.1-4.399,5.7-6.5c1.6-2.101,3-4.2,4.4-6.601
        c0.5-0.399,0,0.801-0.8,2.201c0,0,0.1-0.201,0.3-0.5c0.2-0.301,0.5-0.701,0.7-1.101c0.2-0.399,0.5-0.8,0.7-1.101
        c0.2-0.299,0.3-0.5,0.3-0.5c0.1,0.101-0.1,0.601-0.5,1.201c-0.2,0.299-0.4,0.6-0.6,1c-0.2,0.299-0.4,0.6-0.6,0.899
        c1.5-1.8,2.7-3.899,3.6-6.3c0.5-1.2,0.9-2.4,1.3-3.6c0.2-0.601,0.4-1.301,0.6-1.9c0.2-0.7,0.4-1.4,0.5-2.1c0,0,0-0.101,0-0.201
        c0-0.1,0-0.299,0-0.399c0-0.2,0-0.3-0.1-0.399c0-0.101,0-0.201,0-0.201l0.1-0.399c-0.1,0-0.3-1.3-0.6-2.2c0-0.5,0.2-0.5,0.3-0.8
        c0-0.101,0-0.2,0-0.3s0-0.301-0.1-0.5c0-0.1-0.1-0.2-0.1-0.301c0-0.1,0-0.1-0.1-0.199c0-0.1-0.1-0.1-0.1-0.2
        c-0.1-0.101-0.1-0.3-0.2-0.5c-0.1-0.2-0.2-0.3-0.3-0.5c-0.4-0.601-1-1.3-1.7-1.8c-0.7-0.5-1.6-0.9-2.5-1.1
        c-0.4-0.101-0.9-0.201-1.3-0.301c-0.2,0-0.4-0.1-0.7-0.1h-0.3c-0.1,0-0.2,0-0.3,0c-0.2,0-0.4,0-0.6,0s-0.4,0-0.6,0
        c-0.4,0-0.8,0-1.1,0c0.8,0,1,0.1,1,0.199c0,0.101-0.3,0.101-0.6,0.101c-0.3,0-0.6,0-0.9-0.101c-0.3,0-0.6,0-0.8,0
        c-0.1,0-0.3,0-0.4,0s-0.3,0-0.4,0c-0.3,0-0.5,0.101-0.8,0.101l-0.1-0.3c-0.1,0.1-0.8,0.4-1.6,0.6c-0.2,0.1-0.5,0.2-0.7,0.301
        c-0.1,0-0.2,0.1-0.4,0.1c-0.1,0-0.2,0.1-0.3,0.1c-0.4,0.2-0.7,0.301-0.8,0.4c-0.4,0,0.1-0.2,0.7-0.5c0.2-0.1,0.3-0.1,0.5-0.2
        c0.2-0.101,0.3-0.101,0.5-0.2c0.3-0.1,0.5-0.199,0.6-0.3c-1.4,0.399-2.2,0.7-2.8,0.899c-0.6,0.201-0.9,0.4-1.2,0.5
        c-0.6,0.301-1.3,0.5-3.6,1.9c-0.6,0.4-0.8,0.7-0.9,0.801c-0.1,0.1,0.1,0.1,0.2,0c0.3-0.101,0.8-0.301,0.3,0.299
        c-2.1,1.4-3.9,3-6.3,4.601l0.9-0.3c-1.7,1.6-3,2.8-4.3,4c-1.2,1.1-2.3,2.1-3.5,3.1c-1.3,1.7-2.4,3.301-3.4,4.7
        c-0.3,0.399-0.5,0.8-0.8,1.2c0.5-1.5,1.4-3.4,1.8-4.6c0.5-1.5,0.9-2.801,1.3-4l-0.1,0.699c0.2-0.699,0.4-1.3,0.6-1.9
        c0.2-0.6,0.4-1.1,0.6-1.6c0.4-1,0.7-1.8,1.1-2.699c0.4-0.9,0.8-1.801,1.3-2.801s1-2.199,1.7-3.6c0.2-0.301,0.4-0.7,0.4-0.6
        c1.2-2.9,3.3-6.801,5.6-10.601c2.2-3.8,4-6.8,5.3-9l0.4-0.101c0,0,0.4-0.6,1-1.6c0.3-0.5,0.7-1.1,1.1-1.699
        c0.4-0.601,0.8-1.201,1.3-1.9c0.8-1.3,1.7-2.6,2.4-3.5c0.3-0.5,0.6-0.9,0.8-1.2s0.3-0.4,0.3-0.4s-0.2,0.2-0.4,0.6
        c-0.3,0.4-0.6,0.8-0.9,1.3c-0.7,0.9-1.3,1.9-1.3,1.9c0.1-0.4,0.5-1.1,1.1-2c0.3-0.4,0.7-1,1.1-1.5s0.9-1.1,1.4-1.8
        c2-2.6,4.6-5.8,7.1-9.6c2.6-3.3,4.9-6.9,7.3-10.5c2.4-3.6,4.9-7.2,7.8-10.4c2.4-3.4-1.9,3.2,1.9-1.8c0.4,0.1-1.7,2.4-0.4,1.4
        c0.9-1.2,1.8-2.3,2.7-3.3c0.9-1,1.8-2,2.7-3c1.8-2,3.8-4.1,6.2-7h0.4c6.1-7.8,12.8-13.5,16.9-18.6c3.4-3.8,4.801-4.8,6.1-6
        c1.4-1.1,2.701-2.3,6.201-6.3l3.199-2.6c3.2-3.1,1.9-2.7,5.6-6c0,0.4,4.701-4.3,2.801-2c4.199-3.8,8.3-7.9,12.699-12.2
        c4.5-4.3,9.301-8.9,15.201-13.6c1-1.3,3-3.1,5-4.8c1.899-1.7,3.799-3.4,4.6-4.3c0.199,0,3.1-2.5,5.199-4.2c1-0.8,1.9-1.5,2-1.6
        c0.201-0.1-0.299,0.4-1.799,1.9c-0.5,0.5-1.5,1.3-1.5,1.2l-0.601,0.9c6.899-5,11.7-10.1,18.399-15.2c-1,0.7-2.199,1.6-2.899,2.1
        s-0.899,0.6-0.101-0.1c0,0,1.5-1.2,3.101-2.4c1.601-1.2,3.101-2.4,3.101-2.4l-1.101,1.2c0,0,0.101-0.1,0.399-0.3
        c0.301-0.2,0.601-0.5,1.101-0.8c0.899-0.6,2-1.5,3.2-2.4c1.199-0.9,2.4-1.7,3.199-2.3c0.9-0.6,1.5-1.1,1.5-1.1l-1.5,0.7
        c1.201-0.8,2.201-1.4,3.101-2c0.5-0.3,0.899-0.6,1.3-0.8c0.5-0.3,0.9-0.6,1.301-0.9c0.899-0.6,1.799-1.3,2.699-2.2
        c0.5-0.4,1-0.9,1.5-1.5c0.1-0.2,0.301-0.3,0.4-0.5c0.1-0.1,0.1-0.2,0.199-0.3c0.101-0.1,0.201-0.2,0.201-0.3l0.1-0.2
        c0-0.1,0.1-0.1,0.1-0.2c0.1-0.1,0.2-0.3,0.301-0.4c0.1-0.1,0.199-0.3,0.299-0.5c0.101-0.2,0.201-0.3,0.301-0.5
        c0.1-0.1,0.1-0.3,0.199-0.4c0-0.1,0.101-0.2,0.101-0.3c0.101-0.2,0.101-0.3,0.101-0.3c0-0.1-0.101,0-0.201,0.2
        c-0.1,0.1-0.1,0.2-0.199,0.4c-0.1,0.1-0.2,0.3-0.301,0.5c-0.199,0.3-0.5,0.7-0.799,1c-0.601,0.7-0.801,0.9-0.801,0.8
        c0-0.1,0.1-0.2,0.5-0.6c0.2-0.2,0.4-0.5,0.6-0.9c0.201-0.4,0.5-0.8,0.701-1.4c0.299-0.7,0.5-1.4,0.5-2.2c0-0.8-0.201-1.6-0.701-2.2
        c-0.199-0.3-0.5-0.6-0.799-0.9C260.4,5.5,260,5.3,259.6,5.1c-0.8-0.4-1.7-0.6-2.7-0.8c-0.5-0.1-0.9-0.1-1.3-0.1c-0.3,0-0.7,0-1,0
        c-0.7,0-1.3,0-2,0c-1.3,0.1-2.601,0.2-3.899,0.4c-0.701,0.1-1.301,0.2-2,0.3C246.1,5,245.4,5.1,244.8,5.2s-1.301,0.2-1.9,0.3
        c-0.6,0.1-1.3,0.2-1.9,0.4c-1.299,0.3-2.5,0.5-3.799,0.8c-1.301,0.3-2.5,0.6-3.701,0.8c1,0.1-1.6,0.7-4.199,1.5l-0.4-0.2
        c-1.3,0.4-2.3,0.7-3.1,0.9c-0.801,0.2-1.4,0.4-1.9,0.5c-1,0.2-1.5,0.3-2,0.3s-1,0.1-1.9,0.4c-0.5,0.1-1.1,0.3-1.899,0.6
        c-0.399,0.1-0.8,0.3-1.3,0.4c-0.5,0.2-1,0.4-1.7,0.6l-1.601,1c-1.1,0.4-2,0.8-2.699,1.1c-0.7,0.3-1.301,0.5-1.9,0.7
        c-1,0.3-1.699,0.5-2.3,0.7c-0.7,0.2-1.399,0.4-2.5,0.8c-0.601,0.2-1.2,0.5-2.101,0.9c-0.799,0.4-1.799,0.8-3,1.4
        c1.9-0.8,2.4-0.8,1.9-0.4c-0.3,0.2-0.8,0.5-1.6,0.9c-0.801,0.4-1.801,0.8-3,1.2l1.1-0.8c-2.6,1.1-3.4,1.6-5.1,2.3
        c1.5-0.8,0.6-0.8-3.1,0.9l2.399-1.5c0,0-1.7,0.9-3.5,1.8c-0.899,0.4-1.7,0.9-2.399,1.3c-0.601,0.4-1.101,0.6-1.101,0.6
        c-0.7,0.3-1.399,0.6-2.2,0.9c-0.8,0.3-1.6,0.7-2.4,1.1c-0.799,0.4-1.6,0.8-2.399,1.2s-1.601,0.8-2.399,1.2
        c-1.5,0.8-3,1.5-4.201,2.1c-1.199,0.6-2.199,1-2.799,1.2c0,0-0.201,0.1-0.5,0.3c-0.301,0.2-0.801,0.4-1.301,0.7
        c-0.6,0.3-1.199,0.6-1.9,1c-0.699,0.4-1.5,0.8-2.299,1.2c-0.801,0.4-1.601,0.9-2.4,1.3c-0.801,0.4-1.5,0.9-2.2,1.3
        c-1.2,0.7-2.2,1.4-2.8,1.8c0.6-0.5-0.4,0-1.301,0.4c-1.1,0.5-2.199,1.1-1.5,0.4c-0.699,0.5-1.699,1.2-2.899,2
        c-1.2,0.8-2.6,1.7-4,2.6c-2.8,1.8-5.8,3.7-7.5,4.6l0.6-0.4c-6.3,3.8-11.4,7.4-16.3,11c-4.9,3.6-9.6,7.2-14.9,11c0.3,0-0.9,1-2,1.9
        s-2.1,1.8-1.3,1.4c-5.2,4.4-10.1,8.1-14.1,11.3c-1,0.8-1.9,1.6-2.8,2.3c-0.9,0.7-1.7,1.4-2.4,2.1c-1.4,1.3-2.5,2.6-3.2,3.6
        c-4.5,4.2-5.6,4.7-8,6.8l1-1.1c-4.2,4-6.9,6.6-9.2,9c-1.2,1.2-2.3,2.3-3.5,3.5c-1.2,1.2-2.5,2.5-4,4c-0.7,0.8-1.3,1.4-1.7,2.1
        c-0.5,0.6-0.9,1.2-1.4,1.9c-1,1.3-2.4,2.9-5,5.7c1.5-2-0.6,0.3-2.5,2.5c1.2-1.4,1.5-1.9-1.1,0.8c-0.3,0.5-0.8,1.1-1.3,1.7
        c0,0-0.1,0.1-0.1,0c-0.8,0.9-1.3,1.6-1.7,2s-0.5,0.7-0.5,0.7c0,0.1,0.5-0.5,1.2-1.3c0,0.1,0.1,0,0.6-0.5c-0.9,0.9-1.9,2-2.9,3.1
        c-1,1.2-2,2.4-3,3.5c-1.9,2.3-3.4,4.1-3.7,4.2c-4.5,5.7-8.1,10.7-11.3,15.7c-0.8,1.2-1.6,2.5-2.4,3.7c-0.8,1.2-1.5,2.4-2.3,3.7
        c-0.7,1.2-1.5,2.5-2.2,3.7c-0.4,0.6-0.7,1.3-1.1,1.9s-0.7,1.3-1.1,2c-0.4,0.5-0.4,0.2,0.1-0.7c0.2-0.4,0.5-1,0.8-1.7
        c0.3-0.6,0.8-1.4,1.2-2.1c0,0-0.3,0.5-0.7,1.2c-0.2,0.3-0.4,0.7-0.7,1.2c-0.2,0.4-0.5,0.9-0.8,1.4c-0.3,0.5-0.5,0.9-0.8,1.4
        c-0.2,0.4-0.5,0.9-0.7,1.199c-0.4,0.701-0.6,1.201-0.6,1.201c-0.1-0.101,0.4-1.201,1.2-2.601c0.4-0.7,0.8-1.4,1.2-2.1
        s0.8-1.4,1.2-2c-0.4,0.5-0.7,1.1-1.1,1.6c-0.3,0.5-0.7,1.1-1,1.7c-0.7,1.1-1.3,2.3-1.9,3.4c-0.3,0.6-0.6,1.199-0.9,1.799
        c-0.3,0.601-0.6,1.201-0.9,1.801s-0.6,1.199-0.9,1.8c-0.1,0.3-0.3,0.601-0.4,0.899C8.2,183.9,8,184.2,7.9,184.5
        c-0.3,0.6-0.5,1.301-0.8,1.9c-0.3,0.699-0.5,1.3-0.8,2c-0.5,1.3-1,2.699-1.4,4.1c-0.4,1.4-0.8,2.9-1.1,4.4
        c-0.1,0.8-0.2,1.6-0.3,2.4c-0.1,0.799-0.1,1.6,0,2.5c0,0,0,0.199,0.1,0.399c0,0.101,0.1,0.3,0.1,0.5s0.1,0.3,0.2,0.5
        c0.2,0.7,0.6,1.399,0.6,1.399s0,0,0,0.101s0.1,0.2,0.1,0.3c0.1,0.2,0.2,0.4,0.2,0.4s0,0,0.1,0.1c0.1,0.1,0.1,0.2,0.2,0.301
        c0.1,0.1,0.2,0.299,0.4,0.5c0.1,0.199,0.3,0.399,0.5,0.6c0.4,0.4,0.8,0.8,1.3,1.1c0.5,0.301,1,0.6,1.5,0.801
        c0.8,0.6,0.7,0.699,1.2,1c0.3,0.1,0.7,0.299,1.4,0.5c0.8,0.199,1.9,0.399,3.5,0.399c0.6,0,1.3,0,2.1,0c0.7,0,1.5-0.101,2.3-0.2
        c1.6-0.199,3.3-0.6,5.1-1.1c3.5-1,6.9-2.4,9.7-3.6c-1.5,0.6-2.1,0.699-2.1,0.699c0-0.1,0.6-0.3,1.2-0.699
        c1.4-0.601,2.5-0.9,3.5-1.301c0.5-0.199,1-0.4,1.5-0.6c0.2-0.1,0.5-0.2,0.7-0.301c0.2-0.1,0.5-0.199,0.7-0.399l0.3,0.2
        c0.1-0.1,0.3-0.2,0.7-0.5c0.6-0.301,1.5-0.801,2.5-1.4c2-1,4.1-2.3,4.6-2.6c0.8-0.301-0.2,0.3-1.4,1.1c-0.3,0.2-0.6,0.4-1,0.6
        c-0.3,0.201-0.6,0.4-0.9,0.5c-0.6,0.301-1,0.601-1.2,0.701c5.3-2.701,6.5-3.5,7.8-4.301c0.6-0.4,1.3-0.8,2.4-1.4
        c0.6-0.299,1.2-0.799,2.1-1.299c0.4-0.301,0.9-0.601,1.4-0.9c0.5-0.301,1.1-0.7,1.7-1.1c0.3-0.201,0.6-0.4,0.8-0.601
        c0.2-0.2,0.4-0.3,0.6-0.5c0.3-0.3,0.5-0.399,0.6-0.5c0.2-0.2-0.1-0.101-0.4,0.101c-0.6,0.299-1.6,0.899-0.5-0.101
        c4.5-3.2,8.7-6.8,13.6-10.8c0,0-0.4,0.3-0.9,0.5c-0.2,0.1-0.4,0.3-0.6,0.4c-0.2,0.1-0.3,0.199-0.3,0.199c1.9-1.8,3.6-3.4,5.2-4.9
        c0.8-0.699,1.5-1.5,2.2-2.199c0.7-0.7,1.4-1.4,2-2.1c1.3-1.3,2.5-2.6,3.7-3.9c1.2-1.3,2.3-2.5,3.5-3.9c0.4-0.5,0.7-1,1.1-1.5
        c0.2-0.3,0.3-0.5,0.5-0.8c0.1-0.3,0.3-0.5,0.4-0.8c0.2-0.4,0.6-1.5,0.5-2c-0.2-0.8-1.5-2.4-3.1-0.8c-0.7,0.6-1.2,1.5-1.2,1.5l0,0
        l0,0l0,0l0,0l0,0l0,0l0,0c-0.1,0.2-0.2,0.3-0.3,0.5c-0.2,0.3-0.5,0.6-0.7,0.9c-1,1.2-2,2.4-3,3.6c-4,4.6-8.1,8.8-12.6,12.8
        c-2.2,2-4.5,4-7,5.9c-2.5,2-5.1,3.899-7.9,5.899c-2.9,1.899-5.9,3.899-9.3,5.8s-7.1,3.801-11.1,5.6c-3.6,1.5-6.9,2.701-10,3.5
        c-3.1,0.801-6,1.301-8.5,1.4c-1.3,0-2.5-0.1-3.5-0.3s-1.8-0.601-2.4-1.101c-0.5-0.5-0.9-1-1.1-1.799C8.8,202.4,8.7,202,8.7,201.5
        c0-0.199,0-0.5,0-0.699c0-0.201,0-0.5,0-0.801c0-1,0.2-2.1,0.5-3.199c0.3-1.101,0.6-2.301,1-3.4c0.4-1.2,0.9-2.4,1.4-3.6
        c0.3-0.601,0.5-1.201,0.8-1.9c0.3-0.6,0.6-1.301,0.9-1.9c1.3-2.6,2.7-5.3,4.3-8.3c1.7-2.899,3.5-6.1,5.7-9.5
        c8.5-13,18.9-26.1,29.1-37.4c0.3-0.4,0.6-0.7,0.9-1.1c0.3-0.4,0.7-0.8,1-1.2c0.7-0.8,1.4-1.7,2.2-2.5c0.8-0.9,1.6-1.8,2.5-2.7
        c0.9-0.9,1.8-1.8,2.7-2.8c3.6-3.7,7.4-7.5,10.4-10.6c0,0,0.7-0.5,1.3-1c0.7-0.5,1.3-1,1.3-1c2-2.2,4.5-4.6,6.8-6.5l-0.1,0.2
        c0.8-0.8,1.6-1.6,2.4-2.3c0.8-0.8,1.7-1.5,2.4-2.2c0.8-0.7,1.5-1.3,2.1-1.9c0.6-0.6,1.2-1,1.6-1.4L89.8,94c0,0,1-0.9,2-1.8
        s2-1.8,2-1.8l-0.6,0.7c5.7-5.2,11.9-10.2,17.6-14.4l-0.7,0.1c1.5-1.1,2.9-2.1,4.2-3.1c1.3-1,2.5-1.8,3.6-2.7
        c2.3-1.7,4.3-3.2,6.3-4.7c1-0.7,2-1.4,3-2.2c1-0.7,2-1.5,3.1-2.2c1.1-0.7,2.2-1.5,3.5-2.3c1.2-0.8,2.6-1.6,4-2.5l-0.1,0.2
        c1.7-1.3,3.4-2.4,5-3.5c1.6-1.1,3.2-2.1,4.7-3c1.5-0.9,3.1-1.8,4.5-2.7c1.5-0.9,3-1.7,4.5-2.5c6-3.3,12.1-6.5,19.801-10.8
        c-1.9,1.1,0.899-0.3,0.799-0.1c0.9-0.5,1.801-0.9,2.701-1.4c0.899-0.4,1.799-0.9,2.699-1.3c1.801-0.9,3.4-1.7,4.801-2.4
        c0.699-0.4,1.399-0.7,2-1c0.6-0.3,1.1-0.6,1.5-0.8C191.5,27.3,192,27,192,26.8c0.701-0.3,1.301-0.5,1.801-0.8
        c0.5-0.2,0.9-0.4,1.3-0.5c0.7-0.3,1.101-0.4,1.399-0.5c0.601-0.1,0.5,0,0.9,0c0-0.1,0.2-0.3,0.7-0.5c0.5-0.3,1.2-0.6,2-1
        c0.899-0.4,1.8-0.8,2.899-1.2c1-0.4,2.201-0.9,3.201-1.3l-1.9,0.9c0,0,0.8-0.3,1.9-0.7c0.6-0.2,1.299-0.5,2-0.8
        c0.699-0.3,1.5-0.6,2.299-0.8c1.601-0.6,3.101-1.1,4.301-1.5c1.199-0.4,2-0.7,2-0.7l-2.7,0.3c3.399-1,3.8-1,4.3-1
        c0.4,0,0.801,0,4-1.1l-0.199-0.4c0.299-0.1,0.6-0.2,0.899-0.3c0.3-0.1,0.601-0.2,0.8-0.2c0.6-0.1,1.1-0.3,1.6-0.4
        c0.5-0.1,1.101-0.3,1.601-0.4c0.5-0.1,1-0.3,1.5-0.4c1-0.2,2-0.4,2.899-0.6c0.5-0.1,1-0.2,1.4-0.3c0.5-0.1,0.9-0.2,1.4-0.3
        c0.9-0.2,1.9-0.3,2.8-0.5c0.5-0.1,1-0.2,1.399-0.2c0.5-0.1,1-0.2,1.5-0.2c1-0.2,2-0.3,3.101-0.5c1.101-0.2,2.2-0.3,3.3-0.5
        c1.2-0.2,2.4-0.4,3.5-0.6c1.2-0.2,2.301-0.3,3.5-0.3c0.6,0,1.1,0,1.6,0c0.301,0,0.5,0,0.601,0s0.2,0,0.2,0c0.199,0,0.3,0.1,0.5,0.2
        c0.1,0.1,0.3,0.2,0.3,0.4s0,0.3-0.101,0.5c0,0.1-0.1,0.1-0.1,0.2c0,0,0,0.1-0.1,0.1l0,0l0,0V11l-0.1,0.1l-0.101,0.1
        c-0.101,0.1-0.2,0.2-0.3,0.3c-0.2,0.2-0.4,0.4-0.6,0.6c-0.4,0.4-0.801,0.8-1.301,1.2c-0.9,0.8-1.8,1.5-2.8,2.2
        c-1,0.7-2,1.5-3.101,2.2c-8.199,6-16.1,12.3-23.799,18.8c-15.4,12.9-30,26.3-43.5,38.7l-1.4,0.9c-0.2,0-0.801,0.5-1.4,1.2
        c-0.699,0.7-1.5,1.7-2.4,2.7c-1.699,2-3.5,4-4.199,4.3l-2.801,3.2c-0.899,0.8-2.799,2.5-1.399,0.9c-2.8,2.8-2.8,2.9-4.7,5.1
        l-3.199,2.8c-5.5,5.5-10.4,10.8-15.201,16.3c-4.8,5.5-9.7,11.1-15.1,17.3c-3.3,3.6-7.3,8.2-11.4,13.3c-4.2,5.1-8.5,10.8-12.8,16.6
        c-4.2,5.8-8.3,11.9-11.9,17.6c-3.6,5.8-6.8,11.3-9.3,16.1c-1.7,3.4-3.4,6.801-5.1,10.4c-1.6,3.6-3.2,7.199-4.6,11
        c-0.2,0.5-0.3,0.9-0.5,1.4c-0.2,0.5-0.3,0.899-0.5,1.399c-0.3,0.899-0.7,1.899-1,2.8c-0.7,1.9-1.4,3.801-2,5.7
        c-0.3,0.899-0.7,1.8-1,2.7c0,0-0.1,0-0.1,0.1c-0.1,0.4-0.3,0.7-0.4,1.1c-0.9,2.5-4.1,9.701-5.1,12.201l-0.5,2.199l-0.3,0.6
        c0.1,0-0.5,2.4-1,3.9c-0.8,1.301-0.6-0.3-2.4,4.7c-0.4,1-0.9,2.2-1.4,3.5s-1,2.8-1.5,4.3c-1,3-2.1,6.2-3,8.801
        C54,268.099,54,268.2,53.8,269c-0.3,0.801-0.6,1.5-0.9,2.301c0,0.1-0.1,0.199-0.1,0.299c-0.6,1.4-1.2,2.4-1.6,3.801l-0.3,0.1
        c0.1,0.6-2.4,6.801-2.5,7.7c-0.8,1.3,1.3-4,1.3-4.7c-2,5-2.5,6.301-3,7.5c-0.5,1.2-1,2.5-3.1,7.5c-2,5.4,0.8-0.8,0,1.9
        c-1.9,4.699-3.6,9.4-6.2,14.699l0.7-1.1c-0.6,1.6-1,2.6-1,2.6s-0.2,0.5-0.5,1.4c-0.1,0.2-0.2,0.5-0.3,0.801
        c-0.1,0.299-0.3,0.699-0.4,1c0,0.1,0,0.199,0,0.299c-0.1,0.201-0.2,0.5-0.2,0.701c-0.1,0.399-0.3,0.899-0.4,1.299
        c-0.4,1.5-1.1,3.301-2,5.4c-0.5,1.1-1.2,2.3-1.9,3.6c-0.6,0.801-1.1,1.601-1.7,2.5c-1.8,2.601-3.7,5.4-5.2,7.701
        c1.3-1.701,1.4-1.801,1.2-1.201c-0.3,0.4-0.6,0.801-0.8,1.201c-0.2,0.299-0.4,0.6-0.6,0.899c0,0,0,0.101-0.1,0.101l0,0
        c-0.2,0.299-0.4,0.6-0.6,0.899s-0.5,0.7-0.7,1c0,0.101-1.1,2.5-0.4,3.5c0.2,0.2,2.3,1.399,3.4-0.5l-0.3,0.7
        c0.3-0.4,0.5-0.801,0.8-1.2c0.3-0.399,0.5-0.7,0.8-1.101c0.5-0.699,1.1-1.5,1.6-2.199c1-1.4,2-2.801,2.9-4.2
        c1.8-2.7,3.5-5.3,4.8-7.9c1.4-2.6,2.5-5.2,3.2-8c0.1-0.3,0.1-0.6,0.2-0.899l0.1-0.2l0.1-0.2l0.1-0.5l0.3-0.9l0.3-0.899l0.3-0.9
        c0.1-0.3,0.2-0.6,0.3-0.899c0.2-0.601,0.4-1.2,0.6-1.9c0.6-0.6,1.8-3.6,3-6.7c1.2-3.2,2.5-6.6,3.3-8.2l-0.1,0.301
        c3-8.9,7.7-17.7,10.5-26.301c-0.1,0.301,0,0.5-0.5,2c0.5-1.399,1.1-2.899,1.6-4.3c0.6-1.7,1.2-3.3,1.8-4.8c1.1-2.9,2-5.1,2.3-5.3
        c0.7-1.8,1.4-3.8,2.1-5.8c0.7-2,1.4-4.1,2.2-6.2c0.7-2.101,1.5-4.2,2.2-6.3c0.7-2.1,1.4-4.2,2.1-6.301c0.4-1.199,0.8-2.399,1.2-3.6
        c0.2-0.199,0.4-0.5,0.6-0.8c0.3-0.3,0.5-0.7,0.8-1c0.1-0.2,0.3-0.399,0.4-0.601c0.1-0.199,0.3-0.399,0.4-0.6
        c0.3-0.4,0.6-0.8,0.9-1.1c1.2-1.5,2.2-2.7,2.2-2.7c1.1-1.2,2.1-2.3,3.1-3.4c0.5-0.5,1-1,1.5-1.5s0.9-1,1.4-1.5
        c1.9-1.899,3.7-3.7,5.6-5.399c0.2-0.2,0.5-0.4,0.7-0.601c0.2-0.2,0.5-0.399,0.7-0.6c0.5-0.4,1-0.8,1.5-1.2c0.3-0.2,0.5-0.4,0.8-0.6
        c0.3-0.2,0.6-0.4,0.8-0.601c0.3-0.2,0.6-0.399,0.9-0.6s0.6-0.4,0.9-0.601c1.2-0.699,2.5-1.399,4-2c1.4-0.6,3-1,4.6-1.1
        c0.3,0,0.7,0,1.1,0c0.2,0,0.4,0,0.5,0c0.2,0,0.4,0,0.5,0c0.3,0.1,0.7,0.1,1,0.2c0.1,0,0.3,0.1,0.4,0.1s0.3,0.101,0.4,0.101
        c0.5,0.199,1,0.399,1.3,0.6c0.3,0.2,0.6,0.5,0.8,0.7s0.3,0.5,0.4,0.8c0.1,0.3,0.1,0.6,0.2,1c0,0.4,0,0.8-0.1,1.2
        c-0.1,0.399-0.1,0.8-0.2,1.3c-0.4,1.8-1.2,3.7-2.3,5.9c-1.1,2.199-2.5,4.5-4.5,7.3c-4,5.2-9.3,10.2-14.4,14.5
        c-1.1,1.2-2.8,2.6-4.6,4c-1.8,1.399-3.7,2.8-5.1,4.2l-1.4,0.699c-1,0.9-2.1,2-3.3,2.7v-0.1c-1.4,1.399-3.3,2.7-4,3.399v-0.1
        c0,0-0.8,0.6-1.5,1.3c-0.8,0.7-1.6,1.399-1.6,1.399l0.4-0.5c-0.3,0.301-0.6,0.5-0.9,0.801l-0.4,0.4l-0.2,0.199v0.1v0.101
        c-0.1,0.5-0.2,1-0.4,1.4l-0.1,0.399l0,0l0,0l0,0l0,0v0.101c0,0.1,0,0.2,0,0.2c0.1,0.3,0.2,0.5,0.3,0.6c0.2,0.4,0.5,0.7,0.9,1.2
        c0.2,0.2,0.5,0.399,0.8,0.6c0.3,0.2,0.7,0.4,1.1,0.5c0.2,0.101,0.4,0.2,0.6,0.3l0.3,0.101c0.1,0,0.2,0.1,0.2,0.1
        c0.2,0.101,0.3,0.2,0.4,0.3c0.1,0.101,0.1,0.101,0.1,0.101l0.1,0.1c0.4,0.4,0.7,0.8,1,1.3c0,0,0.1-0.1,0.1-0.199
        c0-0.101,0.1-0.2,0.1-0.2c0.6,1.1,1,2.2,1.3,3.3c0.3,1,0.5,2,0.7,3c0.3,2,0.5,4,0.1,6.9l-0.1-0.101c0,0.5,0.1,0.899,0.1,1.3
        c0,0.2,0,0.4,0,0.6c0,0.101,0,0.301,0,0.4c0,0.2,0,0.301,0,0.5c0,0.5,0.1,1,0.2,1.4c0.1,0.4,0.1,0.9,0.2,1.3
        c0.2,1.601,0.4,3.2,0.6,4.7c0.2,1.5,0.3,3,0.6,4.6c0.1,0.801,0.3,1.6,0.4,2.5c0.2,0.801,0.3,1.7,0.5,2.6
        c-0.2-0.899-0.2,0.4-0.3,0.301c0,0.4,0.1,0.9,0.1,1.3c0,0.2,0,0.399,0,0.7c0,0.4,0,0.8,0,1.199c0,0.801,0,1.5,0.1,2.101
        s0.3,1.2,0.5,1.5c0.1,0.2,0.2,0.399,0.3,0.5c0.1,0.101,0.1,0.101,0.2,0.2l0,0l0,0l0,0l0,0l0,0l0,0c0,0,0,0,0.1,0c0,0,0.1,0,0.1,0.1
        c0.2,0.101,0.3,0.101,0.5,0.2c0.2,0,0.3,0,0.5,0c0.6,0,1.1-0.2,1.2-0.399c0.5,0,0.9-0.101,1.2-0.101c0.4,0,0.7-0.1,0.9-0.1
        c0.5-0.101,0.8-0.101,1-0.101c0.4,0,0.3,0.2,0.5,0.301c-0.1-0.301,2.2-0.801,4.2-1.201L88.3,302c0,0,1.4-0.301,2.9-0.5
        c1.4-0.2,2.9-0.5,2.9-0.5l-1.2-0.4c3.1-0.3,0.9,0.6,3.8,0.1l-0.1-0.5c2.1-0.199,3.9-0.199,5.6-0.1c1.7,0.1,3.4,0.2,5.4,0.2
        c4.3-0.2,8.6-0.399,13-0.399c2.2,0,4.4,0.1,6.5,0.199c2.2,0.101,4.3,0.301,6.5,0.601c4.3,0.6,8.4,1.7,12.4,3c2,0.7,4,1.399,6,2.1
        c2,0.8,3.9,1.5,5.801,2.2c0,0,0.1,0.1,0.3,0.3c0.101,0.101,0.2,0.101,0.2,0.2c0.1,0.1,0.1,0.1,0.1,0.1c0,0.2,0.4,0.301,0.801,0.4
        c0.5,0.1,1.1,0.1,1.699,0.2c0.6,0,1.301,0.1,1.801,0.1s0.899,0.101,1.1,0.3c0,0,0.1,0,0.3,0s0.399,0,0.7,0c0.5,0,1,0,1,0
        c0.3,0.101,0.699,0.2,0.9,0.2C166.9,309.9,167,309.9,166.5,310c1.9,0.1,1.9,0,3.201-0.1c0,0,0.5,0.1,1,0.1
        c0.199,0,0.5,0.1,0.699,0.1c0.2,0,0.301,0,0.301,0c3.6-0.1,6.899-0.799,10.1-1.6c3.199-0.9,6.3-1.9,9.8-2.8
        c2.101-0.399,4.7-1.101,7.399-1.8c0.701-0.2,1.4-0.301,2.101-0.5c0.2,0,0.399-0.1,0.5-0.1c0.2,0,0.399-0.101,0.5-0.101
        c0.399-0.101,0.7-0.101,1.101-0.2c0.399-0.1,0.699-0.2,1.1-0.2c0.4-0.1,0.699-0.1,1.1-0.2c0.4-0.1,0.7-0.1,1.1-0.199
        c0.4,0,0.701-0.101,1.101-0.101l1.101-0.1c0.399,0,0.699,0,1.1-0.101c0.4,0,0.699,0,1.1,0s0.7,0,1.1,0c1.5,0,2.9,0.101,4.4,0.301
        c2.9,0.299,5.6,0.799,8.1,1c0.9,0.1,1.701,0.1,2.601,0.199c0.399,0,0.899,0,1.3,0c0.2,0,0.5,0,0.7,0s0.5,0,0.7,0c0.5,0,0.9,0,1.4,0
        s0.899-0.1,1.399-0.1c0.899-0.1,1.8-0.2,2.601-0.2c3.399-0.3,6.899-0.399,10.399-0.2c3.5,0.2,6.899,0.7,10.399,1.2
        c1.801,0.3,3.5,0.5,5.4,0.601c1.801,0.1,3.7,0.1,5.6-0.201c0.201,0,0.701-0.1,1.101-0.1h0.101h0.1c0.1,0,0.1,0,0.199-0.1
        c0.101,0,0.201-0.1,0.201-0.1s0.799-0.101,1.899-0.301c1.101-0.199,2.7-0.4,4.2-0.6c1.5-0.2,3-0.301,4.1-0.4c0.301,0,0.5,0,0.801,0
        c0.199,0,0.399,0,0.6,0c0.199,0,0.3,0,0.4,0c0.1,0,0.1,0,0.1,0s0.199,0,0.6,0c0.2,0,0.4,0,0.7,0s0.601,0,1,0
        c1.399,0.1,3.3,0.301,5.3,1.1c0.1,0,0.2,0.101,0.4,0.101L289,304.4l0.201,0.1c0.299,0.1,0.6,0.3,0.799,0.4
        c0.101,0.1,0.301,0.1,0.4,0.199l0.301,0.101c0.199,0,0.299,0.1,0.5,0.1c0.1,0,0.299,0.101,0.399,0.101
        C292.8,305.4,293.201,302.701,292.3,301.9z"/>
</g>
<text transform="matrix(1 0 0 1 474.1499 48.6499)" font-family="'MyriadPro-Regular'" font-size="12">#82F8C4</text>
</svg>
