<?xml version="1.0" encoding="utf-8"?>
<!-- Generator: Adobe Illustrator 16.0.0, SVG Export Plug-In . SVG Version: 6.00 Build 0)  -->
<!DOCTYPE svg PUBLIC "-//W3C//DTD SVG 1.1//EN" "http://www.w3.org/Graphics/SVG/1.1/DTD/svg11.dtd">
<svg version="1.1" id="Layer_1" xmlns="http://www.w3.org/2000/svg" xmlns:xlink="http://www.w3.org/1999/xlink" x="0px" y="0px"
	 width="297.3px" height="346.3px" viewBox="0 0 297.3 346.3" enable-background="new 0 0 297.3 346.3" xml:space="preserve">
<g>
	<path fill="#F1A0F2" d="M4.4,206.5c0.2,0.4,0.6,1.104,1.4,1.801c0,0,0,0-0.1-0.1C5.6,208.1,5.6,208.1,5.5,207.9
		c-0.1-0.1-0.2-0.199-0.3-0.4c-0.1-0.1-0.2-0.299-0.3-0.5c-0.2-0.299-0.4-0.6-0.5-0.896c-0.1-0.104-0.1-0.2-0.2-0.303
		c0-0.1-0.1-0.1-0.1-0.1C4.1,205.9,4.2,206.1,4.4,206.5z"/>
	<path fill="#F1A0F2" d="M84.3,199.701c-0.1,0.199-0.2,0.399-0.2,0.5C84.3,199.9,84.3,199.701,84.3,199.701z"/>
	<path fill="#F1A0F2" d="M51.7,131C51.7,131,51.6,131,51.7,131c-0.2,0.2-0.4,0.4-0.5,0.6L51.7,131z"/>
	<polygon fill="#F1A0F2" points="214.4,12.9 214.4,12.9 215.201,12.4 	"/>
	<path fill="#F1A0F2" d="M116.3,206.3c0,0,0,0.1,0,0.199c0,0.101,0,0.301,0,0.397c0,0.2,0,0.304,0,0.397c0,0.102,0,0.199,0,0.199
		S116.4,207.201,116.3,206.3z"/>
	<path fill="#F1A0F2" d="M227.1,300.1c0.101,0,0.2,0,0.2,0C227.1,300.1,227.1,300.1,227.1,300.1z"/>
	<path fill="#F1A0F2" d="M89.9,236.9C89.9,236.8,89.9,236.8,89.9,236.9c0.1-0.1,0.2-0.199,0.2-0.199L89.9,236.9z"/>
	<path fill="#F1A0F2" d="M292.3,301.9c0-0.1-0.301-0.5-0.4-0.5h-0.1h-0.1l0,0l0,0l0,0l0,0l-0.104-0.1c-0.104,0-0.2-0.1-0.303-0.1
		c-0.697-0.4-1.397-0.701-2.1-1c-0.701-0.201-1.4-0.5-2.102-0.604c-0.199,0-0.299-0.104-0.5-0.104l-0.299-0.1h-0.201
		c-0.299,0-0.699-0.1-1-0.1c-0.299,0-0.6-0.101-1-0.101c-0.299,0-0.6,0-1,0c-0.6,0-1.299,0-1.898,0.101c-0.301,0-0.602,0.1-0.9,0.1
		c-0.301,0-0.6,0.1-0.897,0.1c-0.196-0.199-0.696-0.299-1.3-0.299c-0.303,0-0.604,0-1,0s-0.7,0.1-1.104,0.1
		c-1.5,0.199-3.1,0.5-3.896,0.5l0.104-0.1c-1,0.299-2.104,0.5-3.104,0.6c-0.5,0.103-1,0.103-1.604,0.199c-0.1,0-0.299,0-0.396,0
		h-0.396H266c-1.896,0-3.799-0.199-5.799-0.199c0.1,0,0.199-0.197,0.899-0.197c-1.3-0.104-2.899-0.2-4.2-0.396
		c-1.4-0.201-2.4-0.4-2.5-0.604c-0.4,0-0.9-0.104-1.4-0.104c-0.199,0-0.5,0-0.699-0.1c-0.197,0-0.5,0-0.697-0.1
		c-0.5,0-1-0.103-1.5-0.103s-1-0.103-1.5-0.103c-1-0.102-2-0.102-3-0.102c-0.5,0-1,0-1.5,0s-1,0-1.5,0c-1,0-2,0.102-2.896,0.201
		C238.8,298.8,237.9,298.9,237,299c-0.799,0.104-1.6,0.201-2.299,0.4c-0.701,0.1-1.4,0.301-1.9,0.4l0.303-0.102
		c-0.303,0.102-0.604,0.198-0.803,0.198C232.101,300,231.8,300,231.601,300c-0.2,0-0.4,0.103-0.602,0.103c-0.199,0-0.398,0-0.602,0
		c-0.398,0-0.8,0-1.3,0s-1,0-1.7,0C227.3,300,227.1,300,227.1,300c-1.3,0.104-3.3-0.1-5.101-0.5c-1-0.199-1.899-0.396-2.699-0.5
		c-0.801-0.199-1.6-0.299-2.2-0.299L217,298.4c0,0-0.1,0-0.199,0c-0.098,0-0.397,0-0.6-0.1c-0.5-0.1-1.201-0.2-2-0.2
		c-0.4,0-0.701-0.101-1.101-0.101c-0.3,0-0.7,0-0.899,0c-0.5,0-0.9,0-0.9,0s0.5,0,1.103,0.101c0.304,0,0.5,0,0.7,0.101
		c0.197,0,0.3,0,0.3,0c-0.196,0.199-0.603,0.199-1.103,0.199c-0.301,0-0.5,0-0.897-0.1c-0.196,0-0.3,0-0.5-0.1
		c-0.196,0-0.397,0-0.5-0.104c-0.397,0-0.8-0.104-1.196-0.104c-0.4,0-0.9-0.1-1.4,0c-0.9,0-2,0.104-3,0.4c-0.5,0.1-1,0.1-1.4,0.199
		c-0.5,0.102-0.9,0.301-1.4,0.4c-0.5,0.2-0.896,0.301-1.396,0.5c-0.5,0.2-0.896,0.397-1.301,0.6c-1.803,0.801-3.602,1.602-5.5,2
		c-1.699,0.801,1.398-1-1.199,0c-0.199-0.398,1.199-0.6,0.396-0.699c-2.6,0.9-4.396,0.801-7.5,2l-0.197-0.301
		c-2,0.801-4,1.201-5.803,1.5c-1.799,0.301-3.396,0.5-4.799,0.9c-0.5,0.1-1,0.2-1.397,0.2c-0.399,0-0.7,0-1,0
		c-0.304,0-0.5,0-0.7-0.104c-0.199,0-0.396-0.102-0.604-0.102c-0.396-0.1-0.799-0.1-1.299-0.1c-0.301,0-0.601,0-1,0
		c-0.397,0-0.897,0.1-1.397,0.1c0,0-0.103,0-0.304-0.1c-0.196,0-0.396-0.1-0.6-0.2c-0.4-0.101-0.8-0.3-0.8-0.3
		c-0.5-0.1-0.8-0.1-1-0.1s-0.399,0.1-0.601,0.1c-0.199,0-0.399,0-0.699,0c-0.1,0-0.301,0-0.5-0.1c-0.2,0-0.4-0.104-0.6-0.201
		c0.1-0.101-0.5-0.299-1-0.5c-0.5-0.199-0.804-0.299-0.201-0.299l-0.401-0.097l-0.399-0.2c-0.301-0.102-0.5-0.199-0.801-0.3
		c-0.6-0.2-1.199-0.399-1.8-0.603c-1.2-0.397-2.5-0.699-3.8-1.102c-2.6-0.801-5.4-1.699-8.6-3.102c-0.4,0-0.9-0.1-1.4-0.199
		s-1.1-0.301-1.7-0.398c-1.2-0.301-2.3-0.5-2.8-0.5c0-0.102-0.5-0.199-1-0.398c-0.6-0.199-1.3-0.301-1.9-0.5
		c-0.6-0.199-1.1-0.301-1.1-0.301s0-0.102,0.2-0.102c0.2,0,0.5,0,1,0c0.3,0,0.9,0.199,0.9,0.199l0.5-0.199
		c-0.9-0.301-1.8-0.602-2.8-0.699c-0.5-0.102-0.9-0.102-1.3-0.199c-0.4,0-0.9-0.102-1.3-0.102s-0.9-0.102-1.3-0.102s-0.9,0-1.3,0
		c-0.9-0.1-1.8-0.1-2.8-0.199c1.1,0.199,2.6,0.301,1.6,0.398c0,0-0.9-0.102-1.8-0.199c-0.4,0-0.9-0.1-1.2-0.1c-0.3,0-0.6,0-0.6,0
		l0.8-0.201c0,0-1.3-0.102-2.6-0.199c-1.3-0.1-2.6-0.199-2.6-0.199l0.7,0.301c-1.3-0.102-2.2-0.301-3.1-0.4
		c-0.9-0.1-1.9-0.1-3.3,0.104c-1.3,0.301,2.4,0.396-0.3,0.5c-1.7-0.104-3.9-0.104-6.2-0.104c-2.3,0-4.7,0.104-6.9,0.303
		c0.4,0.301-0.7,0.398-1.9,0.602l-0.2-0.301c-2.3,0.5-2.7,0.396-3.2,0.199c-0.4-0.102-0.9-0.303-3.1,0.197l-0.7,0.5
		c-2,0.604-2.6,0.5-3.2,0.5c-0.6,0-1.3,0-3.5,0.803c1.8-0.303,1,0.5-1.3,0.801l0.5-0.398c-0.6,0.1-1.1,0.299-1.1,0.299
		c-0.1,0.102-0.3,0.102-0.4,0.102c0.2-0.102,0.2-0.201,0.1-0.301s-0.2-0.1-0.4,0c0,0,0.1-0.1,0.3-0.199
		c0.1-0.102,0.2-0.201,0.2-0.201s0,0-0.1,0.102s-0.2,0.199-0.4,0.199c0,0-0.1,0-0.1,0.103H83c-0.1,0-0.1,0-0.1-0.103
		c-0.1,0-0.1-0.1-0.1-0.1c0.1-0.301,0.1-0.5,0.1-0.701v-0.1l0,0v-0.1c0-0.201,0-0.4,0-0.604c0-0.396,0-0.8,0-1.197
		c-0.1-1.603-0.2-3-0.1-3.603c0,0,0-0.397-0.1-0.897c-0.1-0.603-0.2-1.303-0.3-2.103c-0.2-1.5-0.6-3.103-0.9-3.804
		c0.4,0.604,0-2.1,0.5-1.299c-0.3-0.701-0.7-2.101-0.9-3.5c-0.1-0.701-0.2-1.397-0.2-2c0-0.101,0-0.301,0-0.397s0-0.103,0-0.2
		c0-0.3,0.1-0.604,0.2-0.8v0.3C81.3,275,81.4,273.5,81.3,272c0-1.5-0.2-3-0.4-4.398c-0.2-1.396-0.5-2.896-1-4.396
		c-0.2-0.701-0.5-1.5-0.8-2.303c-0.3-0.801-0.7-1.602-1.2-2.398c-0.1,0.201-0.6-0.5-1.2-1.102c-0.3-0.301-0.6-0.5-0.8-0.697
		c-0.2-0.104-0.3-0.104-0.2,0.1c-0.1-0.1-0.2-0.2-0.3-0.2l-0.1-0.101h-0.1c-0.1,0-0.1,0-0.1-0.102H75
		c-0.1-0.102-0.2-0.102-0.4-0.197c-0.2-0.104-0.5-0.201-0.6-0.303l-0.1-0.102l0,0l0,0l0.1-0.1c0.1-0.102,0.2-0.102,0.3-0.201
		c0.2-0.1,0.4-0.199,0.6-0.299c0.2-0.102,0.3-0.201,0.4-0.301c0.1-0.1,0.2-0.1,0.3-0.199c0.1-0.101,0.2-0.201,0.3-0.201
		c0.2-0.199,0.3-0.299,0.5-0.397c0.6-0.603,1-1.199,1.3-1.802c2.1-1.698,2.7-1.698,3.9-2.5l-0.5,0.5c3.9-3.198,5.1-4.1,8.1-6.397
		c1.4-1.301,1.2-2,4-4c-0.7,0.897,0.4,0,1.3-0.801c-0.6,0.603-0.7,0.801,0.7-0.103c0.1-0.199,0.4-0.5,0.6-0.699h0.1
		c1.6-1.5,1.2-1.301,0.4-0.698c0-0.103-0.1,0-0.4,0.103c0.5-0.302,1-0.699,1.5-1.103c0.3-0.199,0.5-0.397,0.8-0.699
		c0.3-0.198,0.5-0.5,0.8-0.698c1-0.898,1.8-1.603,2-1.5c2.3-2.302,4.1-4.398,5.7-6.5c1.6-2.103,3-4.199,4.4-6.603
		c0.5-0.397,0,0.801-0.8,2.198c0,0,0.1-0.198,0.3-0.5c0.2-0.301,0.5-0.698,0.7-1.1c0.2-0.4,0.5-0.801,0.7-1.102
		c0.2-0.299,0.3-0.5,0.3-0.5c0.1,0.102-0.1,0.602-0.5,1.201c-0.2,0.299-0.4,0.6-0.6,1c-0.2,0.299-0.4,0.6-0.6,0.898
		c1.5-1.802,2.7-3.898,3.6-6.302c0.5-1.198,0.9-2.397,1.3-3.603c0.2-0.6,0.4-1.301,0.6-1.897c0.2-0.698,0.4-1.397,0.5-2.103
		c0,0,0-0.1,0-0.199c0-0.098,0-0.301,0-0.396c0-0.199,0-0.302-0.1-0.398c0-0.102,0-0.201,0-0.201l0.1-0.398
		c-0.1,0-0.3-1.301-0.6-2.201c0-0.5,0.2-0.5,0.3-0.799c0-0.102,0-0.201,0-0.301s0-0.301-0.1-0.5c0-0.1-0.1-0.199-0.1-0.301
		c0-0.1,0-0.1-0.1-0.199c0-0.1-0.1-0.1-0.1-0.199c-0.1-0.102-0.1-0.301-0.2-0.5c-0.1-0.201-0.2-0.301-0.3-0.5
		c-0.4-0.602-1-1.301-1.7-1.801c-0.7-0.5-1.6-0.9-2.5-1.1c-0.4-0.102-0.9-0.201-1.3-0.301c-0.2,0-0.4-0.103-0.7-0.103h-0.3
		c-0.1,0-0.2,0-0.3,0c-0.2,0-0.4,0-0.6,0s-0.4,0-0.6,0c-0.4,0-0.8,0-1.1,0c0.8,0,1,0.103,1,0.198c0,0.104-0.3,0.104-0.6,0.104
		c-0.3,0-0.6,0-0.9-0.104c-0.3,0-0.6,0-0.8,0c-0.1,0-0.3,0-0.4,0s-0.3,0-0.4,0c-0.3,0-0.5,0.104-0.8,0.104l-0.1-0.302
		c-0.1,0.103-0.8,0.397-1.6,0.603c-0.2,0.1-0.5,0.199-0.7,0.301c-0.1,0-0.2,0.1-0.4,0.1c-0.1,0-0.2,0.1-0.3,0.1
		c-0.4,0.201-0.7,0.301-0.8,0.4c-0.4,0,0.1-0.199,0.7-0.5c0.2-0.1,0.3-0.1,0.5-0.199c0.2-0.102,0.3-0.102,0.5-0.201
		c0.3-0.1,0.5-0.199,0.6-0.299c-1.4,0.398-2.2,0.699-2.8,0.898c-0.6,0.201-0.9,0.4-1.2,0.5c-0.6,0.301-1.3,0.5-3.6,1.9
		c-0.6,0.397-0.8,0.699-0.9,0.801c-0.1,0.1,0.1,0.1,0.2,0c0.3-0.104,0.8-0.301,0.3,0.299c-2.1,1.4-3.9,3-6.3,4.602l0.9-0.301
		c-1.7,1.6-3,2.801-4.3,4c-1.2,1.1-2.3,2.1-3.5,3.1c-1.3,1.701-2.4,3.301-3.4,4.701c-0.3,0.398-0.5,0.799-0.8,1.199
		c0.5-1.5,1.4-3.4,1.8-4.6c0.5-1.5,0.9-2.801,1.3-4l-0.1,0.699c0.2-0.699,0.4-1.301,0.6-1.9s0.4-1.1,0.6-1.6
		c0.4-1,0.7-1.801,1.1-2.699c0.4-0.9,0.8-1.801,1.3-2.801s1-2.199,1.7-3.603c0.2-0.302,0.4-0.698,0.4-0.603
		c1.2-2.897,3.3-6.801,5.6-10.6c2.2-3.801,4-6.801,5.3-9l0.4-0.102c0,0,0.4-0.6,1-1.6c0.3-0.5,0.7-1.103,1.1-1.699
		c0.4-0.604,0.8-1.201,1.3-1.9c0.8-1.3,1.7-2.6,2.4-3.5c0.3-0.5,0.6-0.9,0.8-1.2c0.2-0.3,0.3-0.4,0.3-0.4s-0.2,0.2-0.4,0.6
		c-0.3,0.4-0.6,0.8-0.9,1.3c-0.7,0.9-1.3,1.9-1.3,1.9c0.1-0.4,0.5-1.1,1.1-2c0.3-0.4,0.7-1,1.1-1.5s0.9-1.1,1.4-1.8
		c2-2.6,4.6-5.8,7.1-9.6c2.6-3.3,4.9-6.9,7.3-10.5c2.4-3.601,4.9-7.2,7.8-10.4c2.4-3.4-1.9,3.2,1.9-1.8c0.4,0.1-1.7,2.4-0.4,1.4
		c0.9-1.2,1.8-2.3,2.7-3.3c0.9-1,1.8-2,2.7-3c1.8-2,3.8-4.1,6.2-7h0.4c6.1-7.8,12.8-13.5,16.9-18.6c3.4-3.8,4.801-4.8,6.1-6
		c1.4-1.1,2.701-2.3,6.201-6.3l3.199-2.601c3.2-3.1,1.9-2.7,5.6-6c0,0.4,4.701-4.3,2.801-2c4.199-3.8,8.303-7.899,12.699-12.2
		c4.5-4.3,9.301-8.9,15.201-13.6c1-1.3,3-3.1,5-4.8c1.899-1.7,3.799-3.4,4.6-4.3c0.199,0,3.103-2.5,5.199-4.2c1-0.8,1.9-1.5,2-1.6
		c0.201-0.1-0.299,0.4-1.799,1.9c-0.5,0.5-1.5,1.3-1.5,1.2l-0.601,0.9c6.899-5,11.7-10.1,18.399-15.2c-1,0.7-2.199,1.6-2.899,2.1
		s-0.899,0.6-0.101-0.1c0,0,1.5-1.2,3.101-2.4s3.101-2.4,3.101-2.4l-1.101,1.2c0,0,0.101-0.1,0.399-0.3
		c0.301-0.2,0.601-0.5,1.101-0.8c0.899-0.6,2-1.5,3.2-2.4c1.199-0.9,2.4-1.7,3.199-2.3c0.897-0.6,1.5-1.1,1.5-1.1l-1.5,0.7
		c1.201-0.8,2.201-1.4,3.101-2c0.5-0.3,0.899-0.6,1.3-0.8c0.5-0.3,0.9-0.6,1.301-0.9c0.899-0.6,1.799-1.3,2.699-2.2
		c0.5-0.4,1-0.9,1.5-1.5c0.1-0.2,0.301-0.3,0.4-0.5c0.1-0.1,0.1-0.2,0.199-0.3c0.101-0.1,0.201-0.2,0.201-0.3l0.1-0.2
		c0-0.1,0.1-0.1,0.1-0.2c0.1-0.1,0.2-0.3,0.301-0.4c0.1-0.1,0.199-0.3,0.299-0.5c0.104-0.2,0.201-0.3,0.301-0.5
		c0.103-0.1,0.103-0.3,0.199-0.4c0-0.1,0.104-0.2,0.104-0.3c0.104-0.2,0.104-0.3,0.104-0.3c0-0.1-0.104,0-0.201,0.2
		c-0.102,0.1-0.102,0.2-0.199,0.4c-0.1,0.1-0.2,0.3-0.301,0.5c-0.199,0.3-0.5,0.7-0.799,1c-0.604,0.7-0.804,0.9-0.804,0.8
		c0-0.1,0.103-0.2,0.5-0.6c0.2-0.2,0.397-0.5,0.603-0.9c0.201-0.4,0.5-0.8,0.701-1.4c0.299-0.7,0.5-1.4,0.5-2.2
		c0-0.8-0.201-1.6-0.701-2.2c-0.199-0.3-0.5-0.6-0.799-0.9C260.4,5.5,260,5.3,259.6,5.1c-0.8-0.4-1.7-0.6-2.7-0.8
		c-0.5-0.1-0.9-0.1-1.3-0.1c-0.3,0-0.7,0-1,0c-0.7,0-1.3,0-2,0c-1.3,0.1-2.601,0.2-3.899,0.4c-0.701,0.1-1.301,0.2-2,0.3
		C246.1,5,245.4,5.1,244.8,5.2c-0.6,0.1-1.301,0.2-1.9,0.3s-1.3,0.2-1.9,0.4c-1.299,0.3-2.5,0.5-3.799,0.8
		c-1.301,0.3-2.5,0.6-3.701,0.8c1,0.1-1.6,0.7-4.199,1.5l-0.397-0.2c-1.3,0.4-2.3,0.7-3.103,0.9c-0.801,0.2-1.397,0.4-1.897,0.5
		c-1,0.2-1.5,0.3-2,0.3s-1,0.1-1.897,0.4c-0.5,0.1-1.103,0.3-1.899,0.6c-0.399,0.1-0.8,0.3-1.3,0.4c-0.5,0.2-1,0.4-1.7,0.6l-1.601,1
		c-1.103,0.4-2,0.8-2.699,1.1c-0.7,0.3-1.301,0.5-1.9,0.7c-1,0.3-1.699,0.5-2.3,0.7c-0.7,0.2-1.399,0.4-2.5,0.8
		c-0.601,0.2-1.2,0.5-2.101,0.9c-0.799,0.4-1.799,0.8-3,1.4c1.897-0.8,2.397-0.8,1.897-0.4c-0.3,0.2-0.8,0.5-1.603,0.9
		c-0.801,0.4-1.801,0.8-3,1.2l1.103-0.8c-2.603,1.1-3.397,1.6-5.103,2.3c1.5-0.8,0.603-0.8-3.1,0.9l2.399-1.5c0,0-1.7,0.9-3.5,1.8
		c-0.899,0.4-1.7,0.9-2.399,1.3c-0.601,0.4-1.101,0.6-1.101,0.6c-0.7,0.3-1.399,0.6-2.2,0.9c-0.8,0.3-1.6,0.7-2.4,1.1
		c-0.799,0.4-1.6,0.8-2.396,1.2s-1.604,0.8-2.396,1.2c-1.5,0.8-3,1.5-4.201,2.1c-1.199,0.6-2.199,1-2.799,1.2c0,0-0.201,0.1-0.5,0.3
		c-0.304,0.2-0.804,0.4-1.304,0.7c-0.603,0.3-1.196,0.6-1.897,1c-0.699,0.4-1.5,0.8-2.299,1.2c-0.804,0.4-1.604,0.9-2.4,1.3
		c-0.801,0.4-1.5,0.9-2.2,1.3c-1.2,0.7-2.2,1.4-2.8,1.8c0.6-0.5-0.4,0-1.301,0.4c-1.103,0.5-2.199,1.1-1.5,0.4
		c-0.699,0.5-1.699,1.2-2.899,2c-1.2,0.8-2.6,1.7-4,2.6c-2.8,1.8-5.8,3.7-7.5,4.6l0.6-0.4c-6.3,3.8-11.4,7.4-16.3,11
		c-4.9,3.6-9.6,7.2-14.9,11c0.3,0-0.9,1-2,1.9c-1.1,0.9-2.1,1.8-1.3,1.4c-5.2,4.4-10.1,8.1-14.1,11.3c-1,0.8-1.9,1.6-2.8,2.3
		c-0.9,0.7-1.7,1.4-2.4,2.1c-1.4,1.3-2.5,2.6-3.2,3.6c-4.5,4.2-5.6,4.7-8,6.8l1-1.1c-4.2,4-6.9,6.6-9.2,9c-1.2,1.2-2.3,2.3-3.5,3.5
		c-1.2,1.2-2.5,2.5-4,4c-0.7,0.8-1.3,1.4-1.7,2.1c-0.5,0.6-0.9,1.2-1.4,1.9c-1,1.3-2.4,2.9-5,5.7c1.5-2-0.6,0.3-2.5,2.5
		c1.2-1.4,1.5-1.9-1.1,0.8c-0.3,0.5-0.8,1.1-1.3,1.7c0,0-0.1,0.1-0.1,0c-0.8,0.9-1.3,1.6-1.7,2c-0.4,0.4-0.5,0.7-0.5,0.7
		c0,0.1,0.5-0.5,1.2-1.3c0,0.1,0.1,0,0.6-0.5c-0.9,0.9-1.9,2-2.9,3.1c-1,1.2-2,2.4-3,3.5c-1.9,2.3-3.4,4.1-3.7,4.2
		c-4.5,5.7-8.1,10.7-11.3,15.7c-0.8,1.2-1.6,2.5-2.4,3.7c-0.8,1.2-1.5,2.4-2.3,3.7c-0.7,1.2-1.5,2.5-2.2,3.7
		c-0.4,0.6-0.7,1.3-1.1,1.9c-0.4,0.6-0.7,1.3-1.1,2c-0.4,0.5-0.4,0.197,0.1-0.703c0.2-0.4,0.5-1,0.8-1.7c0.3-0.6,0.8-1.4,1.2-2.1
		c0,0-0.3,0.5-0.7,1.2c-0.2,0.3-0.4,0.7-0.7,1.2c-0.2,0.4-0.5,0.9-0.8,1.4c-0.3,0.5-0.5,0.9-0.8,1.4c-0.2,0.398-0.5,0.898-0.7,1.197
		c-0.4,0.701-0.6,1.201-0.6,1.201c-0.1-0.102,0.4-1.201,1.2-2.602c0.4-0.699,0.8-1.4,1.2-2.1c0.4-0.7,0.8-1.399,1.2-2
		c-0.4,0.5-0.7,1.101-1.1,1.601c-0.3,0.5-0.7,1.1-1,1.7c-0.7,1.102-1.3,2.3-1.9,3.398c-0.3,0.602-0.6,1.199-0.9,1.799
		c-0.3,0.603-0.6,1.201-0.9,1.803c-0.3,0.602-0.6,1.197-0.9,1.8c-0.1,0.302-0.3,0.603-0.4,0.897C8.2,183.9,8,184.201,7.9,184.5
		c-0.3,0.603-0.5,1.301-0.8,1.9c-0.3,0.699-0.5,1.301-0.8,2c-0.5,1.301-1,2.699-1.4,4.1c-0.4,1.401-0.8,2.9-1.1,4.4
		c-0.1,0.801-0.2,1.6-0.3,2.4c-0.1,0.799-0.1,1.6,0,2.5c0,0,0,0.199,0.1,0.398c0,0.102,0.1,0.301,0.1,0.5c0,0.198,0.1,0.301,0.2,0.5
		c0.2,0.698,0.6,1.396,0.6,1.396s0,0,0,0.104c0,0.102,0.1,0.198,0.1,0.301c0.1,0.199,0.2,0.397,0.2,0.397s0,0,0.1,0.103
		c0.1,0.1,0.1,0.199,0.2,0.301c0.1,0.1,0.2,0.299,0.4,0.5c0.1,0.199,0.3,0.398,0.5,0.6c0.4,0.4,0.8,0.801,1.3,1.1
		c0.5,0.301,1,0.603,1.5,0.801c0.8,0.603,0.7,0.699,1.2,1c0.3,0.103,0.7,0.302,1.4,0.5c0.8,0.199,1.9,0.4,3.5,0.4c0.6,0,1.3,0,2.1,0
		c0.7,0,1.5-0.102,2.3-0.201c1.6-0.199,3.3-0.6,5.1-1.1c3.5-1,6.9-2.4,9.7-3.6c-1.5,0.6-2.1,0.699-2.1,0.699
		c0-0.103,0.6-0.301,1.2-0.699c1.4-0.602,2.5-0.9,3.5-1.301c0.5-0.199,1-0.4,1.5-0.603c0.2-0.103,0.5-0.198,0.7-0.302
		c0.2-0.102,0.5-0.198,0.7-0.396l0.3,0.198c0.1-0.103,0.3-0.198,0.7-0.5c0.6-0.302,1.5-0.802,2.5-1.397c2-1,4.1-2.301,4.6-2.603
		c0.8-0.302-0.2,0.302-1.4,1.103c-0.3,0.199-0.6,0.397-1,0.6c-0.3,0.201-0.6,0.4-0.9,0.5c-0.6,0.301-1,0.602-1.2,0.701
		c5.3-2.701,6.5-3.5,7.8-4.301c0.6-0.4,1.3-0.801,2.4-1.4c0.6-0.299,1.2-0.799,2.1-1.299c0.4-0.301,0.9-0.602,1.4-0.9
		c0.5-0.301,1.1-0.699,1.7-1.1c0.3-0.201,0.6-0.4,0.8-0.602c0.2-0.199,0.4-0.302,0.6-0.5c0.3-0.302,0.5-0.398,0.6-0.5
		c0.2-0.199-0.1-0.104-0.4,0.102c-0.6,0.299-1.6,0.898-0.5-0.102c4.5-3.199,8.7-6.802,13.6-10.802c0,0-0.4,0.302-0.9,0.5
		c-0.2,0.103-0.4,0.302-0.6,0.397c-0.2,0.103-0.3,0.199-0.3,0.199c1.9-1.799,3.6-3.398,5.2-4.898c0.8-0.698,1.5-1.5,2.2-2.198
		c0.7-0.698,1.4-1.4,2-2.1c1.3-1.3,2.5-2.6,3.7-3.9c1.2-1.3,2.3-2.5,3.5-3.9c0.4-0.5,0.7-1,1.1-1.5c0.2-0.3,0.3-0.5,0.5-0.8
		c0.1-0.3,0.3-0.5,0.4-0.8c0.2-0.4,0.6-1.5,0.5-2c-0.2-0.8-1.5-2.4-3.1-0.8c-0.7,0.6-1.2,1.5-1.2,1.5l0,0l0,0l0,0l0,0l0,0l0,0l0,0
		c-0.1,0.2-0.2,0.3-0.3,0.5c-0.2,0.3-0.5,0.6-0.7,0.9c-1,1.2-2,2.4-3,3.6c-4,4.6-8.1,8.8-12.6,12.8c-2.2,2-4.5,4-7,5.897
		c-2.5,2-5.1,3.9-7.9,5.9c-2.9,1.898-5.9,3.898-9.3,5.799c-3.4,1.901-7.1,3.801-11.1,5.602c-3.6,1.5-6.9,2.699-10,3.5
		c-3.1,0.802-6,1.302-8.5,1.398c-1.3,0-2.5-0.1-3.5-0.299c-1-0.201-1.8-0.602-2.4-1.102c-0.5-0.5-0.9-1-1.1-1.799
		C8.8,202.4,8.7,202,8.7,201.5c0-0.199,0-0.5,0-0.699c0-0.198,0-0.5,0-0.801c0-1,0.2-2.1,0.5-3.199c0.3-1.1,0.6-2.301,1-3.397
		c0.4-1.198,0.9-2.397,1.4-3.603c0.3-0.6,0.5-1.198,0.8-1.897c0.3-0.603,0.6-1.301,0.9-1.897c1.3-2.603,2.7-5.301,4.3-8.301
		c1.7-2.898,3.5-6.102,5.7-9.5c8.5-13,18.9-26.1,29.1-37.4c0.3-0.399,0.6-0.7,0.9-1.1c0.3-0.4,0.7-0.8,1-1.2
		c0.7-0.8,1.4-1.7,2.2-2.5c0.8-0.9,1.6-1.8,2.5-2.7c0.9-0.899,1.8-1.8,2.7-2.8c3.6-3.7,7.4-7.5,10.4-10.6c0,0,0.7-0.5,1.3-1
		c0.7-0.5,1.3-1,1.3-1c2-2.2,4.5-4.601,6.8-6.5l-0.1,0.2c0.8-0.8,1.6-1.6,2.4-2.3c0.8-0.8,1.7-1.5,2.4-2.2c0.8-0.7,1.5-1.3,2.1-1.9
		c0.6-0.6,1.2-1,1.6-1.4L89.8,94c0,0,1-0.9,2-1.8c1-0.9,2-1.8,2-1.8l-0.6,0.7c5.7-5.2,11.9-10.2,17.6-14.4l-0.7,0.1
		c1.5-1.1,2.9-2.1,4.2-3.1c1.3-1,2.5-1.8,3.6-2.7c2.3-1.7,4.3-3.2,6.3-4.7c1-0.7,2-1.4,3-2.2c1-0.7,2-1.5,3.1-2.2
		c1.1-0.7,2.2-1.5,3.5-2.3c1.2-0.8,2.6-1.6,4-2.5l-0.1,0.2c1.7-1.3,3.4-2.4,5-3.5c1.6-1.1,3.2-2.1,4.7-3c1.5-0.9,3.1-1.8,4.5-2.7
		c1.5-0.9,3-1.7,4.5-2.5c6-3.3,12.1-6.5,19.801-10.8c-1.9,1.1,0.899-0.3,0.799-0.1c0.9-0.5,1.801-0.9,2.701-1.4
		c0.899-0.4,1.799-0.9,2.699-1.3c1.801-0.9,3.4-1.7,4.801-2.4c0.699-0.4,1.399-0.7,2-1c0.6-0.3,1.1-0.6,1.5-0.8
		C191.5,27.3,192,27,192,26.8c0.701-0.3,1.301-0.5,1.801-0.8c0.5-0.2,0.9-0.4,1.303-0.5c0.697-0.3,1.104-0.4,1.396-0.5
		c0.604-0.1,0.5,0,0.9,0c0-0.1,0.2-0.3,0.7-0.5c0.5-0.3,1.2-0.6,2-1c0.899-0.4,1.8-0.8,2.899-1.2c1-0.4,2.201-0.9,3.201-1.3
		l-1.9,0.9c0,0,0.8-0.3,1.9-0.7c0.6-0.2,1.299-0.5,2-0.8c0.696-0.3,1.5-0.6,2.299-0.8c1.601-0.6,3.101-1.1,4.301-1.5
		c1.199-0.4,2-0.7,2-0.7l-2.7,0.3c3.399-1,3.8-1,4.3-1c0.4,0,0.801,0,4-1.1l-0.199-0.4c0.299-0.1,0.6-0.2,0.899-0.3
		c0.299-0.1,0.601-0.2,0.8-0.2c0.6-0.1,1.1-0.3,1.6-0.4c0.5-0.1,1.104-0.3,1.604-0.4s1-0.3,1.5-0.4c1-0.2,2-0.4,2.896-0.6
		c0.5-0.1,1-0.2,1.4-0.3c0.5-0.1,0.9-0.2,1.4-0.3c0.9-0.2,1.9-0.3,2.8-0.5c0.5-0.1,1-0.2,1.399-0.2c0.5-0.1,1-0.2,1.5-0.2
		c1-0.2,2-0.3,3.101-0.5c1.101-0.2,2.2-0.3,3.3-0.5c1.2-0.2,2.4-0.4,3.5-0.6c1.2-0.2,2.301-0.3,3.5-0.3c0.6,0,1.1,0,1.6,0
		c0.301,0,0.5,0,0.604,0s0.197,0,0.197,0c0.199,0,0.303,0.1,0.5,0.2c0.103,0.1,0.303,0.2,0.303,0.4c0,0.2,0,0.3-0.104,0.5
		c0,0.1-0.1,0.1-0.1,0.2c0,0,0,0.1-0.1,0.1l0,0l0,0V11l-0.1,0.1l-0.104,0.1c-0.104,0.1-0.2,0.2-0.303,0.3
		c-0.197,0.2-0.397,0.4-0.6,0.6c-0.4,0.4-0.801,0.8-1.301,1.2c-0.9,0.8-1.801,1.5-2.801,2.2s-2,1.5-3.1,2.2
		c-8.199,6-16.103,12.3-23.802,18.8c-15.397,12.9-30,26.3-43.5,38.7l-1.397,0.9c-0.201,0-0.801,0.5-1.4,1.2
		c-0.699,0.7-1.5,1.7-2.4,2.7c-1.699,2-3.5,4-4.199,4.3l-2.801,3.2c-0.896,0.8-2.799,2.5-1.396,0.9c-2.803,2.8-2.803,2.9-4.7,5.1
		l-3.196,2.8c-5.5,5.5-10.403,10.8-15.204,16.3c-4.8,5.5-9.7,11.1-15.1,17.3c-3.3,3.6-7.3,8.2-11.4,13.3
		c-4.2,5.1-8.5,10.8-12.8,16.6c-4.2,5.8-8.3,11.9-11.9,17.6c-3.6,5.801-6.8,11.301-9.3,16.1c-1.7,3.4-3.4,6.801-5.1,10.4
		c-1.6,3.6-3.2,7.199-4.6,11c-0.2,0.5-0.3,0.9-0.5,1.4c-0.2,0.5-0.3,0.898-0.5,1.398c-0.3,0.896-0.7,1.896-1,2.801
		c-0.7,1.897-1.4,3.801-2,5.699c-0.3,0.896-0.7,1.801-1,2.698c0,0-0.1,0-0.1,0.103c-0.1,0.397-0.3,0.699-0.4,1.1
		c-0.9,2.5-4.1,9.701-5.1,12.201l-0.5,2.199l-0.3,0.6c0.1,0-0.5,2.4-1,3.9c-0.8,1.301-0.6-0.301-2.4,4.699c-0.4,1-0.9,2.198-1.4,3.5
		c-0.5,1.301-1,2.801-1.5,4.301c-1,3-2.1,6.199-3,8.801C54,268.099,54,268.201,53.8,269c-0.3,0.801-0.6,1.5-0.9,2.301
		c0,0.103-0.1,0.199-0.1,0.302c-0.6,1.397-1.2,2.397-1.6,3.801l-0.3,0.103c0.1,0.6-2.4,6.801-2.5,7.699c-0.8,1.301,1.3-4,1.3-4.699
		c-2,5-2.5,6.301-3,7.5s-1,2.5-3.1,7.5c-2,5.397,0.8-0.801,0,1.897C41.7,300.1,40,304.8,37.4,310.1L38.1,309
		c-0.6,1.603-1,2.603-1,2.603s-0.2,0.5-0.5,1.397c-0.1,0.201-0.2,0.5-0.3,0.801c-0.1,0.302-0.3,0.699-0.4,1c0,0.103,0,0.199,0,0.302
		c-0.1,0.198-0.2,0.5-0.2,0.698c-0.1,0.4-0.3,0.9-0.4,1.302c-0.4,1.5-1.1,3.301-2,5.397c-0.5,1.103-1.2,2.301-1.9,3.603
		c-0.6,0.801-1.1,1.603-1.7,2.5c-1.8,2.603-3.7,5.397-5.2,7.698c1.3-1.698,1.4-1.801,1.2-1.198c-0.3,0.397-0.6,0.801-0.8,1.198
		c-0.2,0.302-0.4,0.603-0.6,0.9c0,0,0,0.1-0.1,0.1l0,0c-0.2,0.302-0.4,0.603-0.6,0.9c-0.2,0.299-0.5,0.699-0.7,1
		c0,0.1-1.1,2.5-0.4,3.5c0.2,0.199,2.3,1.398,3.4-0.5l-0.3,0.699c0.3-0.4,0.5-0.801,0.8-1.199c0.3-0.4,0.5-0.701,0.8-1.102
		c0.5-0.699,1.1-1.5,1.6-2.199c1-1.4,2-2.801,2.9-4.199c1.8-2.701,3.5-5.301,4.8-7.9c1.4-2.6,2.5-5.198,3.2-8
		c0.1-0.301,0.1-0.6,0.2-0.897l0.1-0.198l0.1-0.199l0.1-0.5l0.3-0.9l0.3-0.898l0.3-0.899c0.1-0.302,0.2-0.601,0.3-0.897
		c0.2-0.603,0.4-1.199,0.6-1.898c0.6-0.602,1.8-3.602,3-6.701c1.2-3.199,2.5-6.6,3.3-8.199l-0.1,0.301c3-8.9,7.7-17.699,10.5-26.301
		c-0.1,0.301,0,0.5-0.5,2c0.5-1.398,1.1-2.898,1.6-4.301c0.6-1.699,1.2-3.299,1.8-4.799c1.1-2.9,2-5.102,2.3-5.301
		c0.7-1.801,1.4-3.801,2.1-5.801s1.4-4.102,2.2-6.199c0.7-2.103,1.5-4.199,2.2-6.301c0.7-2.102,1.4-4.199,2.1-6.302
		c0.4-1.198,0.8-2.397,1.2-3.603c0.2-0.197,0.4-0.5,0.6-0.799c0.3-0.301,0.5-0.701,0.8-1c0.1-0.201,0.3-0.398,0.4-0.602
		c0.1-0.199,0.3-0.398,0.4-0.6c0.3-0.4,0.6-0.801,0.9-1.103c1.2-1.5,2.2-2.698,2.2-2.698c1.1-1.199,2.1-2.302,3.1-3.4
		c0.5-0.5,1-1,1.5-1.5s0.9-1,1.4-1.5c1.9-1.898,3.7-3.699,5.6-5.398c0.2-0.199,0.5-0.4,0.7-0.602c0.2-0.199,0.5-0.398,0.7-0.6
		c0.5-0.4,1-0.802,1.5-1.199c0.3-0.201,0.5-0.4,0.8-0.603c0.3-0.198,0.6-0.397,0.8-0.603c0.3-0.198,0.6-0.397,0.9-0.6
		c0.3-0.201,0.6-0.4,0.9-0.602c1.2-0.699,2.5-1.398,4-2c1.4-0.6,3-1,4.6-1.1c0.3,0,0.7,0,1.1,0c0.2,0,0.4,0,0.5,0c0.2,0,0.4,0,0.5,0
		c0.3,0.1,0.7,0.1,1,0.198c0.1,0,0.3,0.101,0.4,0.101s0.3,0.102,0.4,0.102c0.5,0.199,1,0.398,1.3,0.6c0.3,0.201,0.6,0.5,0.8,0.701
		c0.2,0.199,0.3,0.5,0.4,0.799c0.1,0.301,0.1,0.603,0.2,1c0,0.4,0,0.801-0.1,1.201c-0.1,0.398-0.1,0.799-0.2,1.299
		c-0.4,1.801-1.2,3.701-2.3,5.9s-2.5,4.5-4.5,7.301c-4,5.199-9.3,10.199-14.4,14.5c-1.1,1.199-2.8,2.6-4.6,4
		c-1.8,1.398-3.7,2.799-5.1,4.199l-1.4,0.699c-1,0.9-2.1,2-3.3,2.699v-0.1c-1.4,1.396-3.3,2.698-4,3.396v-0.102
		c0,0-0.8,0.602-1.5,1.301c-0.8,0.699-1.6,1.398-1.6,1.398l0.4-0.5c-0.3,0.301-0.6,0.5-0.9,0.801l-0.4,0.4l-0.2,0.199v0.1v0.102
		c-0.1,0.5-0.2,1-0.4,1.4l-0.1,0.398l0,0l0,0l0,0l0,0v0.102c0,0.1,0,0.199,0,0.199c0.1,0.301,0.2,0.5,0.3,0.6
		c0.2,0.4,0.5,0.701,0.9,1.201c0.2,0.199,0.5,0.398,0.8,0.6c0.3,0.199,0.7,0.4,1.1,0.5c0.2,0.103,0.4,0.199,0.6,0.301l0.3,0.103
		c0.1,0,0.2,0.101,0.2,0.101c0.2,0.102,0.3,0.201,0.4,0.301c0.1,0.102,0.1,0.102,0.1,0.102l0.1,0.1c0.4,0.4,0.7,0.802,1,1.302
		c0,0,0.1-0.103,0.1-0.199c0-0.103,0.1-0.198,0.1-0.198c0.6,1.1,1,2.198,1.3,3.301c0.3,1,0.5,2,0.7,3c0.3,2,0.5,4,0.1,6.897
		l-0.1-0.103c0,0.5,0.1,0.898,0.1,1.302c0,0.198,0,0.397,0,0.603c0,0.1,0,0.301,0,0.397c0,0.198,0,0.301,0,0.5
		c0,0.5,0.1,1,0.2,1.397c0.1,0.4,0.1,0.9,0.2,1.301c0.2,1.603,0.4,3.199,0.6,4.699c0.2,1.5,0.3,3,0.6,4.603
		c0.1,0.801,0.3,1.603,0.4,2.5c0.2,0.801,0.3,1.698,0.5,2.603c-0.2-0.9-0.2,0.397-0.3,0.301c0,0.397,0.1,0.897,0.1,1.299
		c0,0.201,0,0.4,0,0.701c0,0.397,0,0.799,0,1.199c0,0.801,0,1.5,0.1,2.1c0.1,0.602,0.3,1.201,0.5,1.5c0.1,0.201,0.2,0.4,0.3,0.5
		c0.1,0.102,0.1,0.102,0.2,0.201l0,0l0,0l0,0l0,0l0,0l0,0c0,0,0,0,0.1,0c0,0,0.1,0,0.1,0.1c0.2,0.102,0.3,0.102,0.5,0.199
		c0.2,0,0.3,0,0.5,0c0.6,0,1.1-0.199,1.2-0.398c0.5,0,0.9-0.102,1.2-0.102c0.4,0,0.7-0.1,0.9-0.1c0.5-0.103,0.8-0.103,1-0.103
		c0.4,0,0.3,0.198,0.5,0.301c-0.1-0.301,2.2-0.801,4.2-1.198L88.3,302c0,0,1.4-0.301,2.9-0.5c1.4-0.199,2.9-0.5,2.9-0.5l-1.2-0.397
		c3.1-0.302,0.9,0.603,3.8,0.103l-0.1-0.5c2.1-0.199,3.9-0.199,5.6-0.103c1.7,0.103,3.4,0.198,5.4,0.198
		c4.3-0.198,8.6-0.397,13-0.397c2.2,0,4.4,0.103,6.5,0.199c2.2,0.103,4.3,0.301,6.5,0.603c4.3,0.6,8.4,1.701,12.4,3
		c2,0.701,4,1.397,6,2.1c2,0.801,3.9,1.5,5.801,2.201c0,0,0.103,0.1,0.303,0.299c0.104,0.102,0.197,0.102,0.197,0.201
		c0.103,0.1,0.103,0.1,0.103,0.1c0,0.199,0.397,0.301,0.804,0.4c0.5,0.1,1.1,0.1,1.696,0.199c0.603,0,1.304,0.1,1.804,0.1
		s0.896,0.102,1.1,0.301c0,0,0.1,0,0.3,0s0.399,0,0.7,0c0.5,0,1,0,1,0c0.3,0.102,0.699,0.199,0.9,0.199
		c0.195,0.1,0.297,0.1-0.203,0.199c1.898,0.101,1.898,0,3.201-0.101c0,0,0.5,0.101,1,0.101c0.197,0,0.5,0.101,0.697,0.101
		c0.2,0,0.303,0,0.303,0c3.6-0.101,6.897-0.8,10.1-1.601c3.199-0.899,6.301-1.899,9.801-2.799c2.102-0.4,4.699-1.104,7.398-1.802
		c0.701-0.198,1.398-0.302,2.102-0.5c0.199,0,0.398-0.103,0.5-0.103c0.199,0,0.398-0.102,0.5-0.102
		c0.398-0.101,0.699-0.101,1.102-0.199c0.398-0.101,0.699-0.201,1.102-0.201c0.398-0.1,0.697-0.1,1.102-0.197
		c0.399-0.1,0.698-0.102,1.1-0.197c0.4,0,0.701-0.105,1.102-0.105l1.102-0.1c0.398,0,0.699,0,1.102-0.102c0.398,0,0.698,0,1.102,0
		c0.399,0,0.699,0,1.1,0c1.5,0,2.9,0.102,4.4,0.302c2.898,0.3,5.6,0.8,8.1,1c0.9,0.101,1.701,0.101,2.602,0.198
		c0.398,0,0.898,0,1.301,0c0.199,0,0.5,0,0.699,0c0.2,0,0.5,0,0.7,0c0.5,0,0.899,0,1.399,0s0.898-0.1,1.398-0.1
		c0.897-0.102,1.801-0.199,2.602-0.199c3.398-0.301,6.898-0.399,10.398-0.201c3.5,0.201,6.897,0.701,10.397,1.201
		c1.802,0.299,3.5,0.5,5.399,0.601c1.801,0.101,3.699,0.101,5.601-0.2c0.2,0,0.7-0.102,1.103-0.102h0.102h0.101
		c0.101,0,0.101,0,0.198-0.1c0.102,0,0.201-0.102,0.201-0.102s0.799-0.104,1.898-0.301c1.1-0.199,2.699-0.398,4.199-0.602
		c1.5-0.201,3-0.301,4.102-0.398c0.301,0,0.5,0,0.801,0c0.199,0,0.398,0,0.601,0c0.198,0,0.3,0,0.399,0c0.101,0,0.101,0,0.101,0
		s0.198,0,0.601,0c0.199,0,0.399,0,0.699,0c0.301,0,0.603,0,1,0c1.398,0.102,3.301,0.301,5.301,1.102
		c0.102,0,0.199,0.102,0.399,0.102L289,304.4l0.201,0.1c0.299,0.103,0.6,0.301,0.799,0.4c0.104,0.1,0.301,0.1,0.4,0.199l0.301,0.102
		c0.199,0,0.299,0.1,0.5,0.1c0.1,0,0.299,0.103,0.399,0.103C292.8,305.4,293.201,302.701,292.3,301.9z"/>
</g>
<text transform="matrix(1 0 0 1 474.1499 48.6499)" font-family="'MyriadPro-Regular'" font-size="12">#82F8C4</text>
<text transform="matrix(1 0 0 1 -204.8501 36.6499)" font-family="'MyriadPro-Regular'" font-size="12">#67f2b5</text>
<text transform="matrix(1 0 0 1 -100.8501 -37.3501)" font-family="'MyriadPro-Regular'" font-size="12">#f1a0f2</text>
</svg>
